<svg width="175" height="119" viewBox="0 0 175 119" fill="none" xmlns="http://www.w3.org/2000/svg">
<g clip-path="url(#clip0_54_169)">
<path d="M0 13.4929L36.2965 49.793H36.8101L56.1359 30.4709L39.1616 13.4929H0Z" fill="#FBFDFB"/>
<path d="M56.1322 69.6288L90.9466 104.443C97.8288 111.338 106.602 116.035 116.156 117.94C125.71 119.844 135.614 118.871 144.614 115.143C153.614 111.415 161.305 105.1 166.714 96.9979C172.122 88.8956 175.005 79.3704 174.996 69.6288H147.31C147.308 73.8894 146.044 78.054 143.676 81.5962C141.308 85.1384 137.944 87.8992 134.008 89.5297C130.071 91.1602 125.74 91.5872 121.561 90.7568C117.382 89.9264 113.543 87.8758 110.529 84.8642L75.7148 50.0498L56.1322 69.6288Z" fill="#FBFDFB"/>
<path d="M36.8101 49.793H75.9716L106.186 19.579L86.6031 0L36.8101 49.793Z" fill="#805ABF"/>
</g>
<defs>
<clipPath id="clip0_54_169">
<rect width="175" height="118.864" fill="white"/>
</clipPath>
</defs>
</svg>
