<svg width="478" height="324" viewBox="0 0 478 324" fill="none" xmlns="http://www.w3.org/2000/svg">
<g clip-path="url(#clip0_47_110)">
<path d="M0 36.78L98.94 135.73H100.34L153.02 83.06L106.75 36.78H0Z" fill="#101416"/>
<path d="M153.01 189.8L247.91 284.7C266.67 303.494 290.586 316.297 316.628 321.49C342.67 326.682 369.667 324.029 394.201 313.867C418.734 303.705 439.7 286.491 454.443 264.405C469.186 242.319 477.044 216.355 477.02 189.8H401.55C401.546 201.414 398.099 212.766 391.645 222.422C385.191 232.077 376.019 239.603 365.289 244.048C354.559 248.492 342.753 249.656 331.361 247.393C319.97 245.129 309.505 239.539 301.29 231.33L206.39 136.43L153.01 189.8Z" fill="#101416"/>
<path d="M100.34 135.73H207.09L289.45 53.37L236.07 0L100.34 135.73Z" fill="#805ABF"/>
</g>
<defs>
<clipPath id="clip0_47_110">
<rect width="477.03" height="324.01" fill="white"/>
</clipPath>
</defs>
</svg>
