<svg width="1220" height="486" viewBox="0 0 1220 486" fill="none" xmlns="http://www.w3.org/2000/svg">
<g clip-path="url(#clip0_51_124)">
<path d="M0 0V139.93L0.99 140.92H75.48V75.48L0 0Z" fill="#111416"/>
<path d="M0.0100509 216.4V350.61C-0.0107369 377.162 7.84728 403.124 22.5893 425.207C37.3313 447.291 58.2943 464.504 82.8244 474.667C107.355 484.831 134.349 487.487 160.389 482.3C186.43 477.113 210.346 464.317 229.11 445.53L192.94 409.36L175.74 392.16C167.525 400.375 157.059 405.97 145.664 408.236C134.269 410.501 122.458 409.337 111.725 404.889C100.993 400.441 91.8203 392.91 85.3685 383.248C78.9167 373.586 75.4754 362.228 75.48 350.61V216.4H0.0100509Z" fill="#111416"/>
<path d="M0.98999 140.92L76.47 216.4H192.94V140.92H0.98999Z" fill="#805ABF"/>
<path d="M370.98 229.04V303.53C355.067 303.53 339.806 309.851 328.554 321.104C317.301 332.356 310.98 347.617 310.98 363.53V485.03H237.98V216.53H310.98V243.63C329.569 234.156 350.116 229.159 370.98 229.04Z" fill="#111416"/>
<path d="M923.98 216.53H850.98V485.03H923.98V216.53Z" fill="#111416"/>
<path d="M1084.99 216.99C1058.39 216.988 1032.39 224.874 1010.27 239.65C988.148 254.426 970.908 275.429 960.725 300.003C950.542 324.577 947.875 351.619 953.06 377.709C958.245 403.799 971.051 427.765 989.856 446.578C1008.66 465.391 1032.62 478.205 1058.71 483.4C1084.8 488.595 1111.84 485.938 1136.42 475.764C1161 465.591 1182.01 448.358 1196.79 426.244C1211.58 404.131 1219.47 378.13 1219.48 351.53C1219.49 333.865 1216.01 316.371 1209.25 300.049C1202.5 283.727 1192.59 268.895 1180.1 256.402C1167.61 243.908 1152.79 233.997 1136.47 227.235C1120.15 220.473 1102.66 216.991 1084.99 216.99ZM1084.99 411.49C1073.12 411.49 1061.52 407.971 1051.66 401.378C1041.79 394.785 1034.1 385.415 1029.56 374.451C1025.02 363.487 1023.83 351.423 1026.14 339.785C1028.46 328.146 1034.17 317.455 1042.56 309.064C1050.95 300.672 1061.65 294.958 1073.28 292.643C1084.92 290.328 1096.99 291.516 1107.95 296.057C1118.91 300.598 1128.29 308.289 1134.88 318.156C1141.47 328.023 1144.99 339.623 1144.99 351.49C1145 359.373 1143.45 367.179 1140.43 374.463C1137.42 381.747 1133 388.367 1127.43 393.942C1121.86 399.518 1115.24 403.941 1107.96 406.959C1100.68 409.977 1092.87 411.53 1084.99 411.53V411.49Z" fill="#111416"/>
<path d="M1084.99 398.53C1110.97 398.53 1132.03 377.469 1132.03 351.49C1132.03 325.51 1110.97 304.45 1084.99 304.45C1059.01 304.45 1037.95 325.51 1037.95 351.49C1037.95 377.469 1059.01 398.53 1084.99 398.53Z" fill="#805ABF"/>
<path d="M646.38 485.03H558.62L515.89 411.03L491.69 369.1L467.49 411.03L424.75 485.03H337L379.73 411.03L447.81 293.1L491.69 217.1L535.57 293.1L603.65 411.03L617.25 434.58L646.38 485.03Z" fill="#111416"/>
<path d="M718.61 411.03H718.52L718.57 411.1L675.88 485.03H673.49L630.8 411.1L630.85 411.03H630.76L549.13 269.62L518.48 216.53H606.23L674.68 335.1L743.14 216.53H830.9L718.61 411.03Z" fill="#111416"/>
</g>
<defs>
<clipPath id="clip0_51_124">
<rect width="1219.49" height="485.99" fill="white"/>
</clipPath>
</defs>
</svg>
