<svg width="201" height="81" viewBox="0 0 201 81" fill="none" xmlns="http://www.w3.org/2000/svg">
<g clip-path="url(#clip0_54_173)">
<path d="M0 0V23.0637L0.163175 23.2269H12.4408V12.4408L0 0Z" fill="white"/>
<path d="M0.00165473 35.6677V57.7886C-0.00177159 62.165 1.29341 66.4441 3.72323 70.084C6.15305 73.7239 9.60824 76.561 13.6514 78.2361C17.6945 79.9113 22.1438 80.3491 26.4359 79.4942C30.728 78.6393 34.6699 76.5301 37.7626 73.4336L31.801 67.472L28.966 64.637C27.612 65.9911 25.8869 66.9132 24.0087 67.2866C22.1306 67.6601 20.1839 67.4681 18.4149 66.735C16.6459 66.0019 15.1341 64.7606 14.0707 63.1681C13.0073 61.5756 12.4401 59.7035 12.4408 57.7886V35.6677H0.00165473Z" fill="white"/>
<path d="M0.163177 23.2269L12.604 35.6677H31.801V23.2269H0.163177Z" fill="#805ABF"/>
<path d="M61.146 37.7511V50.0287C58.5232 50.0287 56.0078 51.0707 54.1532 52.9253C52.2986 54.7799 51.2567 57.2953 51.2567 59.9181V79.9441H39.2246V35.6891H51.2567V40.1559C54.3206 38.5943 57.7072 37.7708 61.146 37.7511Z" fill="white"/>
<path d="M152.293 35.6891H140.261V79.9441H152.293V35.6891Z" fill="white"/>
<path d="M178.831 35.765C174.447 35.7646 170.161 37.0644 166.515 39.4998C162.87 41.9352 160.028 45.397 158.35 49.4474C156.671 53.4978 156.232 57.9549 157.086 62.2551C157.941 66.5553 160.051 70.5056 163.151 73.6064C166.251 76.7071 170.2 78.8192 174.5 79.6754C178.8 80.5317 183.257 80.0937 187.308 78.4169C191.359 76.7401 194.822 73.8997 197.259 70.2549C199.696 66.6101 200.997 62.3246 200.998 57.9402C200.999 55.0286 200.427 52.1453 199.313 49.455C198.199 46.7647 196.567 44.3202 194.508 42.2609C192.45 40.2017 190.006 38.5681 187.316 37.4535C184.626 36.339 181.743 35.7652 178.831 35.765ZM178.831 67.823C176.875 67.823 174.963 67.243 173.337 66.1564C171.711 65.0697 170.443 63.5252 169.695 61.7182C168.946 59.9111 168.75 57.9227 169.132 56.0043C169.514 54.086 170.455 52.3239 171.838 50.9408C173.222 49.5577 174.984 48.6159 176.902 48.2343C178.82 47.8527 180.809 48.0485 182.616 48.7971C184.423 49.5456 185.967 50.8131 187.054 52.4394C188.141 54.0657 188.721 55.9777 188.721 57.9337C188.722 59.2329 188.466 60.5196 187.97 61.7202C187.473 62.9208 186.745 64.0117 185.826 64.9308C184.908 65.8498 183.818 66.5788 182.617 67.0762C181.417 67.5736 180.131 67.8296 178.831 67.8296V67.823Z" fill="white"/>
<path d="M178.831 65.6869C183.113 65.6869 186.585 62.2156 186.585 57.9336C186.585 53.6516 183.113 50.1804 178.831 50.1804C174.549 50.1804 171.078 53.6516 171.078 57.9336C171.078 62.2156 174.549 65.6869 178.831 65.6869Z" fill="#805ABF"/>
<path d="M106.538 79.9441H92.0734L85.0305 67.7472L81.0418 60.8362L77.0531 67.7472L70.0086 79.9441H55.5453L62.5882 67.7472L73.8094 48.3096L81.0418 35.7831L88.2743 48.3096L99.4954 67.7472L101.737 71.6288L106.538 79.9441Z" fill="white"/>
<path d="M118.443 67.7472H118.429L118.437 67.7588L111.401 79.9441H111.007L103.97 67.7588L103.979 67.7472H103.964L90.5093 44.4396L85.4574 35.6891H99.9206L111.203 55.2322L122.487 35.6891H136.951L118.443 67.7472Z" fill="white"/>
</g>
<defs>
<clipPath id="clip0_54_173">
<rect width="201" height="80.1023" fill="white"/>
</clipPath>
</defs>
</svg>
