<svg width="18" height="19" viewBox="0 0 18 19" fill="none" xmlns="http://www.w3.org/2000/svg">
<path d="M16.0167 5.14177C16.6261 5.50149 17 6.15646 17 6.8641V16C17 17.1046 16.1046 18 15 18H13C11.8954 18 11 17.1046 11 16V11.9999C11 10.8954 10.1046 9.99993 9 9.99993V9.99993C7.89543 9.99993 7 10.8954 7 11.9999V16C7 17.1046 6.10457 18 5 18H3C1.89543 18 1 17.1046 1 16V6.8641C1 6.15646 1.37395 5.50149 1.98335 5.14177L7.98335 1.60011C8.61056 1.22988 9.38944 1.22988 10.0167 1.60011L16.0167 5.14177Z" stroke="#805ABF" stroke-width="2" stroke-linecap="round" stroke-linejoin="round"/>
</svg>
