<svg width="15" height="20" viewBox="0 0 15 20" fill="none" xmlns="http://www.w3.org/2000/svg">
<path d="M7.5 17C8.05229 17 8.5 16.5523 8.5 16C8.5 15.4477 8.05229 15 7.5 15C6.94772 15 6.5 15.4477 6.5 16C6.5 16.5523 6.94772 17 7.5 17Z" fill="black"/>
<path fill-rule="evenodd" clip-rule="evenodd" d="M13 0H2C0.89543 0 0 0.89543 0 2V18C0 19.1046 0.89543 20 2 20H13C14.1046 20 15 19.1046 15 18V2C15 1.46957 14.7893 0.960859 14.4142 0.585786C14.0391 0.210714 13.5304 0 13 0ZM13.36 18C13.36 18.1988 13.1988 18.36 13 18.36H2C1.80118 18.36 1.64 18.1988 1.64 18V2C1.64 1.90452 1.67793 1.81295 1.74544 1.74544C1.81295 1.67793 1.90452 1.64 2 1.64H13C13.1988 1.64 13.36 1.80118 13.36 2V18Z" fill="black"/>
</svg>
